<svg width="274" height="185" viewBox="0 0 274 185" fill="none" xmlns="http://www.w3.org/2000/svg">
<rect width="274" height="185" fill="#EAE2E2"/>
<rect width="274" height="185" fill="black"/>
<path d="M85.489 74.5819C84.7058 74.3119 83.852 74.7278 83.5819 75.511L79.1811 88.2736C78.911 89.0567 79.327 89.9105 80.1101 90.1806C80.8933 90.4507 81.7471 90.0347 82.0172 89.2515L85.9291 77.907L97.2735 81.8189C98.0567 82.089 98.9105 81.673 99.1806 80.8899C99.4507 80.1067 99.0347 79.2529 98.2515 78.9828L85.489 74.5819ZM105.348 114.343L86.3485 75.343L83.6515 76.657L102.652 115.657L105.348 114.343Z" fill="white"/>
<path d="M115.952 111.369C115.014 111.369 114.209 111.038 113.537 110.375C112.874 109.703 112.543 108.898 112.543 107.96C112.543 107.032 112.874 106.237 113.537 105.574C114.209 104.911 115.014 104.58 115.952 104.58C116.861 104.58 117.656 104.911 118.338 105.574C119.02 106.237 119.361 107.032 119.361 107.96C119.361 108.585 119.2 109.158 118.878 109.679C118.565 110.19 118.153 110.602 117.642 110.915C117.131 111.218 116.567 111.369 115.952 111.369ZM136.09 81.9091H142.17V102.193C142.17 104.068 141.748 105.697 140.906 107.08C140.072 108.462 138.912 109.527 137.425 110.276C135.939 111.024 134.21 111.398 132.241 111.398C130.489 111.398 128.898 111.09 127.468 110.474C126.048 109.849 124.921 108.902 124.087 107.634C123.254 106.355 122.842 104.75 122.852 102.818H128.974C128.993 103.585 129.149 104.243 129.442 104.793C129.746 105.332 130.157 105.749 130.678 106.043C131.209 106.327 131.834 106.469 132.553 106.469C133.311 106.469 133.95 106.308 134.471 105.986C135.001 105.654 135.404 105.171 135.678 104.537C135.953 103.902 136.09 103.121 136.09 102.193V81.9091ZM163.036 90.2756C162.923 89.1297 162.435 88.2396 161.573 87.6051C160.711 86.9706 159.542 86.6534 158.065 86.6534C157.061 86.6534 156.213 86.7955 155.522 87.0795C154.831 87.3542 154.3 87.7377 153.931 88.2301C153.571 88.7225 153.391 89.2812 153.391 89.9062C153.372 90.4271 153.481 90.8816 153.718 91.2699C153.964 91.6581 154.3 91.9943 154.727 92.2784C155.153 92.553 155.645 92.7945 156.204 93.0028C156.763 93.2017 157.359 93.3722 157.994 93.5142L160.607 94.1392C161.876 94.4233 163.041 94.8021 164.102 95.2756C165.162 95.7491 166.081 96.3314 166.857 97.0227C167.634 97.714 168.235 98.5284 168.661 99.4659C169.097 100.403 169.319 101.478 169.329 102.69C169.319 104.471 168.865 106.014 167.965 107.321C167.075 108.618 165.787 109.627 164.102 110.347C162.425 111.057 160.404 111.412 158.036 111.412C155.688 111.412 153.642 111.052 151.9 110.332C150.167 109.613 148.813 108.547 147.837 107.136C146.871 105.716 146.365 103.959 146.317 101.866H152.269C152.335 102.842 152.615 103.656 153.107 104.31C153.609 104.954 154.277 105.441 155.11 105.773C155.953 106.095 156.905 106.256 157.965 106.256C159.007 106.256 159.911 106.104 160.678 105.801C161.455 105.498 162.056 105.077 162.482 104.537C162.908 103.997 163.121 103.377 163.121 102.676C163.121 102.023 162.927 101.473 162.539 101.028C162.16 100.583 161.602 100.205 160.863 99.892C160.134 99.5795 159.239 99.2955 158.178 99.0398L155.011 98.2443C152.558 97.6477 150.621 96.715 149.201 95.446C147.781 94.1771 147.075 92.4678 147.085 90.3182C147.075 88.5568 147.544 87.018 148.491 85.7017C149.447 84.3854 150.759 83.358 152.425 82.6193C154.092 81.8807 155.986 81.5114 158.107 81.5114C160.266 81.5114 162.151 81.8807 163.761 82.6193C165.38 83.358 166.639 84.3854 167.539 85.7017C168.439 87.018 168.903 88.5426 168.931 90.2756H163.036Z" fill="#FFFAFA"/>
</svg>
